PathFileType	4	(X/Y/Z)	s07c0201.trc
DataRate	CameraRate	NumFrames	NumMarkers	Units	OrigDataRate	OrigDataStartFrame	OrigNumFrames
200	200	4	48	mm	200	1750	2000
Frame#	Time	racr			lacr			c7			jug			rlel			rdr			llel			ldr			s2			lic			ric			lasi			rasi			rpsi			lpsi			rgt			lgt			rth1			rth2			rth3			rth4			rlfc			rmfc			rsh1			rsh2			rsh3			rsh4			rlmal			rcal			rtoe			rmt5			lth1			lth2			lth4			lth3			llfc			lmfc			lsh1			lsh2			lsh3			lsh4			llmal			lcal			ltoe			lmt5			SBIKE			LBIKE			RBIKE			
		X1	Y1	Z1	X2	Y2	Z2	X3	Y3	Z3	X4	Y4	Z4	X5	Y5	Z5	X6	Y6	Z6	X7	Y7	Z7	X8	Y8	Z8	X9	Y9	Z9	X10	Y10	Z10	X11	Y11	Z11	X12	Y12	Z12	X13	Y13	Z13	X14	Y14	Z14	X15	Y15	Z15	X16	Y16	Z16	X17	Y17	Z17	X18	Y18	Z18	X19	Y19	Z19	X20	Y20	Z20	X21	Y21	Z21	X22	Y22	Z22	X23	Y23	Z23	X24	Y24	Z24	X25	Y25	Z25	X26	Y26	Z26	X27	Y27	Z27	X28	Y28	Z28	X29	Y29	Z29	X30	Y30	Z30	X31	Y31	Z31	X32	Y32	Z32	X33	Y33	Z33	X34	Y34	Z34	X35	Y35	Z35	X36	Y36	Z36	X37	Y37	Z37	X38	Y38	Z38	X39	Y39	Z39	X40	Y40	Z40	X41	Y41	Z41	X42	Y42	Z42	X43	Y43	Z43	X44	Y44	Z44	X45	Y45	Z45	X46	Y46	Z46	X47	Y47	Z47	X48	Y48	Z48	
1750	8.7500	395.525187	1494.639813	-89.481378	385.442827	1483.010020	-389.254214	346.753225	1550.399373	-239.276678	341.952625	1403.243275	-238.967896	505.745494	1169.831212	-18.600551	694.571870	938.844080	-81.972998	492.696694	1168.570217	-452.501667	672.648352	922.429173	-410.717962	-152.391818	1186.444989	-248.013841	-2.257858	1262.510227	-392.058942	9.136047	1254.111726	-96.001891	42.224156	1189.495001	-366.271626	32.350938	1199.816685	-115.914429	-132.622923	1228.167917	-196.100525	-122.616021	1240.323550	-305.218478	-25.462215	1115.191554	-57.803505	-32.888438	1097.205319	-419.283874	111.406806	1044.658329	-51.335198	196.045353	1023.313745	-61.601522	259.983001	966.634155	-60.857825	210.793413	1053.096868	-78.862078	371.809007	878.209253	-94.699966	366.267905	862.269760	-199.686859	334.049269	740.403678	-68.717386	329.580370	652.675750	-87.317710	286.679443	577.417157	-81.488046	344.407171	652.145669	-124.561628	241.495921	449.369378	-80.584809	171.688984	416.692961	-106.441762	455.333677	362.339509	-134.506680	379.003907	339.310877	-59.274383	50.140787	1002.505473	-426.416538	129.050314	962.632214	-427.581444	153.055927	989.016651	-419.578245	178.237075	888.481635	-423.355973	288.599338	751.361920	-388.939040	280.157937	736.132710	-291.859981	188.025006	641.978067	-409.139670	145.509342	569.550517	-389.379538	69.595663	521.706324	-397.294908	150.018492	569.510314	-347.570327	-29.518140	435.702437	-395.608044	-106.837405	441.837668	-362.114419	119.461162	261.164914	-359.661373	38.714367	286.914525	-423.301131	-265.450791	974.171014	-238.918548	-83.480294	78.909760	-437.246265	-83.990138	79.183626	-39.662721	
1751	8.7550	395.866338	1494.873141	-89.965514	385.229988	1483.061038	-389.829800	346.777748	1550.540237	-239.680865	342.032366	1403.431384	-239.469582	506.278722	1169.949548	-19.390676	694.618170	938.539926	-82.408804	492.669377	1168.707573	-453.049396	672.488533	922.546880	-411.020643	-152.487660	1186.682700	-247.765205	-2.534328	1262.943559	-391.779320	9.338875	1253.923385	-95.939370	41.963100	1189.869822	-366.008236	32.488815	1199.450582	-115.781272	-132.588355	1228.258701	-195.761780	-122.709728	1240.630266	-304.954036	-25.703302	1114.466088	-57.877055	-32.982176	1097.859363	-419.394788	110.236095	1041.610444	-50.739213	194.516613	1018.742597	-60.841224	257.480905	960.805755	-60.151494	209.954230	1048.294697	-77.888291	368.087116	871.077288	-94.076870	362.931059	855.484631	-198.350889	331.033981	733.184061	-68.003125	327.326165	645.410975	-86.731052	285.103649	569.810751	-81.074410	342.241380	645.094755	-124.012338	240.965452	441.370976	-80.461399	171.505547	408.042817	-106.343596	455.643653	356.474179	-134.314445	378.938261	331.754674	-60.010314	50.849627	1004.115237	-426.609986	130.296826	965.339080	-428.123964	153.991924	991.958156	-420.161560	180.507045	891.752730	-424.018760	292.380078	755.760627	-389.866072	284.972755	740.162693	-293.075472	191.221960	646.899663	-409.650788	148.014684	574.899997	-389.783897	71.569432	527.853303	-397.587867	152.511489	574.880992	-347.997322	-28.349368	442.957324	-395.684155	-105.591470	450.029327	-362.125818	118.632113	266.744379	-359.750360	38.267587	293.310685	-423.315278	-265.439293	974.181334	-238.899617	-83.473830	78.939631	-437.244527	-83.987874	79.172109	-39.676900	
1752	8.7600	396.272122	1494.858849	-90.675861	385.050443	1483.147614	-390.450795	346.839228	1550.727822	-240.075964	342.191770	1403.638756	-239.961352	506.882588	1170.099615	-20.242557	694.700554	938.235696	-82.840027	492.665459	1168.900737	-453.717210	672.384817	922.640913	-411.322593	-152.550019	1186.954954	-247.516781	-2.699101	1263.274600	-391.585005	9.733672	1253.768858	-96.011347	41.716865	1190.121951	-365.672644	32.634974	1199.164873	-115.481996	-132.524240	1228.440209	-195.408027	-122.840653	1240.950303	-304.578011	-25.993085	1113.801346	-57.969644	-33.091914	1098.650291	-419.525956	109.073121	1038.596485	-50.119723	192.945813	1014.141809	-59.993023	254.767079	955.205906	-59.417182	209.016665	1043.468302	-76.858720	364.265804	864.129682	-93.370921	359.319834	848.564841	-197.224604	327.882289	725.897617	-67.214784	324.966522	638.222644	-86.214899	283.344043	562.262403	-80.647106	339.940059	638.063460	-123.472485	240.646976	433.175730	-80.479197	171.268297	399.377862	-106.384151	455.687932	350.214626	-134.024023	379.193102	324.909842	-59.932191	51.575230	1005.837700	-426.806683	131.505288	968.082805	-428.648767	154.867972	994.955675	-420.777155	182.685839	895.190519	-424.821548	296.182002	760.390839	-390.836097	288.916119	744.929053	-293.650167	194.407179	651.963958	-410.192509	150.493012	580.379617	-390.162486	73.589664	534.011540	-397.804564	155.170761	580.423550	-348.515502	-27.019113	450.119326	-395.896716	-104.206408	458.039473	-362.206900	118.013474	272.859232	-360.446048	38.011513	299.917745	-423.363755	-265.419596	974.180711	-238.852044	-83.481059	78.935927	-437.264706	-83.997759	79.169725	-39.662051	
1753	8.7650	396.646998	1494.991111	-91.244751	384.919444	1483.246362	-391.148673	346.916788	1550.997640	-240.536492	342.407556	1403.887183	-240.485898	507.422922	1170.288544	-21.004470	694.712511	937.953142	-83.325347	492.762608	1169.142511	-454.431349	672.199208	922.676699	-411.626434	-152.592492	1187.213848	-247.249458	-2.919920	1263.642814	-391.323217	10.127497	1253.621919	-95.824489	41.689505	1190.515498	-365.661157	32.854761	1198.881139	-115.351691	-132.399234	1228.579567	-195.070190	-122.889568	1241.289966	-304.253645	-26.210036	1113.146420	-58.069346	-33.208691	1099.425154	-419.676663	107.827718	1035.564975	-49.558700	191.287924	1009.562312	-59.219265	251.972071	949.400748	-58.663180	207.899900	1038.710620	-75.867115	360.241241	857.225486	-92.736960	355.467986	841.692509	-196.327368	324.625059	718.631492	-66.555426	322.492266	631.051263	-85.676168	281.578217	554.675633	-80.314676	337.370464	630.986303	-122.916842	239.645030	425.199729	-80.374013	169.388979	391.972327	-105.492926	455.606427	343.935690	-133.761580	379.211811	317.926163	-59.841002	52.259113	1007.538481	-427.084373	132.682379	970.826621	-429.213309	155.716138	998.025620	-421.339926	184.832762	898.613983	-425.561366	299.886775	764.823234	-391.586099	291.392154	750.038003	-293.625415	197.598240	657.056912	-410.749351	152.992125	586.038895	-390.580798	75.649532	540.266150	-398.131627	157.740662	585.902869	-348.905899	-25.619051	457.420937	-395.926733	-102.724762	465.990706	-362.280298	117.762468	278.828176	-360.444893	38.008683	306.633121	-423.426586	-265.395151	974.180993	-238.848248	-83.475881	78.791094	-437.151261	-83.999837	79.173057	-39.658347	
